<?xml version="1.0" encoding="UTF-8" standalone="no"?>
<svg width="512" height="512" viewBox="0 0 512 512" fill="none" xmlns="http://www.w3.org/2000/svg">
  <path fill-rule="evenodd" clip-rule="evenodd"
    d="M256 480C379.712 480 480 379.712 480 256C480 132.288 379.712 32 256 32C132.288 32 32 132.288 32 256C32 379.712 132.288 480 256 480ZM118.829 202.111C214.808 173.155 318.358 183.513 406.701 230.905C415.461 235.605 426.372 232.313 431.072 223.553C435.771 214.793 432.479 203.882 423.719 199.182C326.963 147.276 213.551 135.932 108.431 167.645C98.9134 170.517 93.5256 180.56 96.3969 190.077C99.2682 199.595 109.311 204.982 118.829 202.111ZM141.044 336.782C208.732 316.901 281.546 324.722 343.467 358.527C350.253 362.232 358.758 359.734 362.463 352.947C366.168 346.161 363.67 337.656 356.884 333.951C288.445 296.588 207.966 287.943 133.153 309.917C125.734 312.096 121.487 319.876 123.666 327.295C125.845 334.713 133.625 338.961 141.044 336.782ZM253.951 257.979C214.292 253.338 174.102 256.88 135.865 268.387C127.404 270.933 118.48 266.138 115.933 257.676C113.387 249.214 118.182 240.291 126.644 237.744C169.071 224.977 213.665 221.046 257.671 226.196C301.677 231.346 344.159 245.467 382.491 267.686C390.136 272.117 392.741 281.907 388.31 289.552C383.879 297.197 374.089 299.803 366.443 295.371C331.897 275.347 293.611 262.621 253.951 257.979Z"
    fill="currentColor" />
</svg>